<svg width="100" height="100" viewBox="0 0 100 100" fill="none" xmlns="http://www.w3.org/2000/svg">
<rect width="100" height="100" fill="#22577E"/>
<path d="M82.5 41.225C81.0917 39.925 79.4937 38.8958 77.7062 38.1375C75.9187 37.3792 73.9958 37 71.9375 37H35.375V34.5625C35.375 31.6375 36.4042 29.1458 38.4625 27.0875C40.5208 25.0292 43.0125 24 45.9375 24H76C77.7875 24 79.3183 24.637 80.5923 25.911C81.8641 27.1828 82.5 28.7125 82.5 30.5V41.225ZM28.0625 58.125C25.1375 58.125 22.6458 57.0958 20.5875 55.0375C18.5292 52.9792 17.5 50.4875 17.5 47.5625V30.5C17.5 28.7125 18.137 27.1828 19.411 25.911C20.6828 24.637 22.2125 24 24 24H34.725C33.425 25.4083 32.3958 27.0062 31.6375 28.7937C30.8792 30.5812 30.5 32.5042 30.5 34.5625V58.125H28.0625ZM24 76C22.2125 76 20.6828 75.3641 19.411 74.0923C18.137 72.8183 17.5 71.2875 17.5 69.5V58.775C18.9083 60.075 20.5062 61.1042 22.2937 61.8625C24.0812 62.6208 26.0042 63 28.0625 63H64.625V65.4375C64.625 68.3625 63.5958 70.8542 61.5375 72.9125C59.4792 74.9708 56.9875 76 54.0625 76H24ZM65.275 76C66.575 74.5917 67.6042 72.9937 68.3625 71.2062C69.1208 69.4187 69.5 67.4958 69.5 65.4375V41.875H71.9375C74.8625 41.875 77.3542 42.9042 79.4125 44.9625C81.4708 47.0208 82.5 49.5125 82.5 52.4375V69.5C82.5 71.2875 81.8641 72.8183 80.5923 74.0923C79.3183 75.3641 77.7875 76 76 76H65.275Z" fill="white"/>
</svg>
