<svg width="364" height="65" viewBox="0 0 364 65" fill="none" xmlns="http://www.w3.org/2000/svg">
<path d="M10.2773 58H27.4219V47.7227H24V20.2891H27.4219V23.7227H37.7109V10H0V23.7227H10.2773V20.2891H13.7109V47.7227H10.2773V58ZM41.1562 58H58.2891V47.7227H54.8672V37.4336H65.1562V47.7227H61.7227V58H78.8672V47.7227H75.4336V20.2891H78.8672V10H61.7227V20.2891H65.1562V27.1445H54.8672V20.2891H58.2891V10H41.1562V20.2891H44.5781V47.7227H41.1562V58ZM82.3125 58H116.59V44.2891H106.312V47.7227H96.0234V37.4336H109.734V27.1445H96.0234V20.2891H106.312V23.7227H116.59V10H82.3125V20.2891H85.7344V47.7227H82.3125V58ZM137.203 58H171.48V44.2891H161.203V47.7227H150.914V20.2891H154.336V10H137.203V20.2891H140.625V47.7227H137.203V58ZM195.504 47.7227H188.648L185.215 44.2891V23.7227L188.648 20.2891H195.504L198.938 23.7227V44.2891L195.504 47.7227ZM181.793 58H202.359L209.215 51.1445V16.8672L202.359 10H181.793L174.938 16.8672V51.1445L181.793 58ZM212.672 58H229.805V47.7227H226.383V37.4336H229.805L234.949 47.7227H233.238V58H250.383V47.7227H245.238L238.383 34L245.238 20.2891H250.383V10H233.238V20.2891H234.949L229.805 30.5781H226.383V20.2891H229.805V10H212.672V20.2891H216.094V47.7227H212.672V58ZM276.961 34H271.828L274.395 23.7227L276.961 34ZM253.828 58H270.961V47.7227H268.395L269.25 44.2891H279.539L280.395 47.7227H277.828V58H294.961V47.7227H291.539L282.105 10H260.684V20.2891H264.105L257.25 47.7227H253.828V58ZM298.406 58H332.684V44.2891H322.406V47.7227H312.117V20.2891H315.539V10H298.406V20.2891H301.828V47.7227H298.406V58Z" fill="#22577E"/>
<path d="M347.141 56H350.713V53.8589H350V48.1436H350.713V48.8589H352.856V46H345V48.8589H347.141V48.1436H347.856V53.8589H347.141V56ZM353.574 56H357.144V53.8589H356.431V50.2871L358.215 53.8589L360.002 50.2871V53.8589H359.287V56H362.859V53.8589H362.144V48.1436H362.859V46H360.002L358.215 49.5718L356.431 46H353.574V48.1436H354.287V53.8589H353.574V56Z" fill="#22577E"/>
</svg>
