<svg width="78" height="78" viewBox="0 0 78 78" fill="none" xmlns="http://www.w3.org/2000/svg">
<path d="M71.5 30.225C70.0917 28.925 68.4937 27.8958 66.7062 27.1375C64.9187 26.3792 62.9958 26 60.9375 26H24.375V23.5625C24.375 20.6375 25.4042 18.1458 27.4625 16.0875C29.5208 14.0292 32.0125 13 34.9375 13H65C66.7875 13 68.3183 13.637 69.5923 14.911C70.8641 16.1828 71.5 17.7125 71.5 19.5V30.225ZM17.0625 47.125C14.1375 47.125 11.6458 46.0958 9.5875 44.0375C7.52917 41.9792 6.5 39.4875 6.5 36.5625V19.5C6.5 17.7125 7.137 16.1828 8.411 14.911C9.68283 13.637 11.2125 13 13 13H23.725C22.425 14.4083 21.3958 16.0062 20.6375 17.7937C19.8792 19.5812 19.5 21.5042 19.5 23.5625V47.125H17.0625ZM13 65C11.2125 65 9.68283 64.3641 8.411 63.0923C7.137 61.8183 6.5 60.2875 6.5 58.5V47.775C7.90833 49.075 9.50625 50.1042 11.2937 50.8625C13.0812 51.6208 15.0042 52 17.0625 52H53.625V54.4375C53.625 57.3625 52.5958 59.8542 50.5375 61.9125C48.4792 63.9708 45.9875 65 43.0625 65H13ZM54.275 65C55.575 63.5917 56.6042 61.9937 57.3625 60.2062C58.1208 58.4187 58.5 56.4958 58.5 54.4375V30.875H60.9375C63.8625 30.875 66.3542 31.9042 68.4125 33.9625C70.4708 36.0208 71.5 38.5125 71.5 41.4375V58.5C71.5 60.2875 70.8641 61.8183 69.5923 63.0923C68.3183 64.3641 66.7875 65 65 65H54.275Z" fill="white"/>
</svg>
