<svg width="691" height="423" viewBox="0 0 691 423" fill="none" xmlns="http://www.w3.org/2000/svg">
<rect width="691" height="423" fill="#22577E"/>
<path d="M153 246H175.844V232.297H171.281V209.438L189.562 246H203.281V195.719H207.844V182H185V195.719H189.562V218.578L171.281 182H153V195.719H157.562V232.297H153V246ZM239.859 232.297H230.719L226.141 227.719V200.297L230.719 195.719H239.859L244.438 200.297V227.719L239.859 232.297ZM221.578 246H249L258.141 236.859V191.156L249 182H221.578L212.438 191.156V236.859L221.578 246ZM285.625 246H308.469V232.297H303.906V195.719H308.469V182H285.625V195.719H290.188V232.297H285.625V246ZM313.062 246H335.906V232.297H331.344V209.438L342.766 232.297L354.203 209.438V232.297H349.625V246H372.484V232.297H367.906V195.719H372.484V182H354.203L342.766 204.859L331.344 182H313.062V195.719H317.625V232.297H313.062V246ZM407.906 214H401.062L404.484 200.297L407.906 214ZM377.062 246H399.906V232.297H396.484L397.625 227.719H411.344L412.484 232.297H409.062V246H431.906V232.297H427.344L414.766 182H386.203V195.719H390.766L381.625 232.297H377.062V246ZM445.641 246H473.062L482.203 236.859V209.438H459.344V223.156H468.5V227.719L463.922 232.297H454.781L450.203 227.719V200.297L454.781 195.719H463.922L468.5 200.297V204.859H482.203V191.156L473.062 182H445.641L436.5 191.156V236.859L445.641 246ZM486.812 246H532.516V227.719H518.812V232.297H505.094V218.578H523.375V204.859H505.094V195.719H518.812V200.297H532.516V182H486.812V195.719H491.375V232.297H486.812V246Z" fill="white"/>
</svg>
