<svg width="100" height="100" viewBox="0 0 100 100" fill="none" xmlns="http://www.w3.org/2000/svg">
<path d="M88.2812 15.625H11.7188C11.2891 15.625 10.9375 15.9766 10.9375 16.4062V22.6562C10.9375 23.0859 11.2891 23.4375 11.7188 23.4375H88.2812C88.7109 23.4375 89.0625 23.0859 89.0625 22.6562V16.4062C89.0625 15.9766 88.7109 15.625 88.2812 15.625ZM88.2812 76.5625H11.7188C11.2891 76.5625 10.9375 76.9141 10.9375 77.3438V83.5938C10.9375 84.0234 11.2891 84.375 11.7188 84.375H88.2812C88.7109 84.375 89.0625 84.0234 89.0625 83.5938V77.3438C89.0625 76.9141 88.7109 76.5625 88.2812 76.5625ZM88.2812 46.0938H11.7188C11.2891 46.0938 10.9375 46.4453 10.9375 46.875V53.125C10.9375 53.5547 11.2891 53.9062 11.7188 53.9062H88.2812C88.7109 53.9062 89.0625 53.5547 89.0625 53.125V46.875C89.0625 46.4453 88.7109 46.0938 88.2812 46.0938Z" fill="#22577E"/>
</svg>
